<mxfile host="app.diagrams.net" agent="Mozilla/5.0 (Windows NT 10.0; Win64; x64) AppleWebKit/537.36 (KHTML, like Gecko) Chrome/131.0.0.0 Safari/537.36" version="24.7.10">
  <diagram name="Page-1" id="YbCOivywx0tjwj4dOsPg">
    <mxGraphModel dx="1909" dy="1022" grid="0" gridSize="10" guides="1" tooltips="1" connect="1" arrows="1" fold="1" page="1" pageScale="1" pageWidth="1100" pageHeight="1700" background="#000000" math="0" shadow="0">
      <root>
        <mxCell id="0" />
        <mxCell id="1" parent="0" />
        <mxCell id="3X-fXsgyXSY3c85X-Qk--4" style="edgeStyle=orthogonalEdgeStyle;rounded=0;orthogonalLoop=1;jettySize=auto;html=1;entryX=0.5;entryY=0;entryDx=0;entryDy=0;strokeColor=#DDA15E;sketch=1;curveFitting=1;jiggle=2;labelBackgroundColor=none;fontColor=default;fontSize=18;" edge="1" parent="1" source="3X-fXsgyXSY3c85X-Qk--1" target="3X-fXsgyXSY3c85X-Qk--2">
          <mxGeometry relative="1" as="geometry">
            <mxPoint x="240" y="50" as="targetPoint" />
          </mxGeometry>
        </mxCell>
        <mxCell id="3X-fXsgyXSY3c85X-Qk--5" style="edgeStyle=orthogonalEdgeStyle;rounded=0;orthogonalLoop=1;jettySize=auto;html=1;entryX=0.5;entryY=0;entryDx=0;entryDy=0;strokeColor=#DDA15E;sketch=1;curveFitting=1;jiggle=2;labelBackgroundColor=none;fontColor=default;fontSize=18;" edge="1" parent="1" source="3X-fXsgyXSY3c85X-Qk--1" target="3X-fXsgyXSY3c85X-Qk--3">
          <mxGeometry relative="1" as="geometry">
            <mxPoint x="590" y="50" as="targetPoint" />
            <Array as="points">
              <mxPoint x="530" y="65" />
              <mxPoint x="530" y="125" />
              <mxPoint x="670" y="125" />
            </Array>
          </mxGeometry>
        </mxCell>
        <mxCell id="3X-fXsgyXSY3c85X-Qk--1" value="Sign in/Sign up&lt;div style=&quot;font-size: 18px;&quot;&gt;(via E-mail)&lt;/div&gt;" style="ellipse;whiteSpace=wrap;html=1;fillColor=#BC6C25;strokeColor=#DDA15E;sketch=1;curveFitting=1;jiggle=2;labelBackgroundColor=none;fontColor=#FEFAE0;fontSize=18;" vertex="1" parent="1">
          <mxGeometry x="360" y="20" width="140" height="90" as="geometry" />
        </mxCell>
        <mxCell id="3X-fXsgyXSY3c85X-Qk--10" style="edgeStyle=orthogonalEdgeStyle;rounded=0;orthogonalLoop=1;jettySize=auto;html=1;entryX=0.5;entryY=0;entryDx=0;entryDy=0;strokeColor=#DDA15E;sketch=1;curveFitting=1;jiggle=2;labelBackgroundColor=none;fontColor=default;fontSize=18;" edge="1" parent="1" source="3X-fXsgyXSY3c85X-Qk--2" target="3X-fXsgyXSY3c85X-Qk--8">
          <mxGeometry relative="1" as="geometry">
            <mxPoint x="100" y="160" as="targetPoint" />
          </mxGeometry>
        </mxCell>
        <mxCell id="3X-fXsgyXSY3c85X-Qk--2" value="View event details&lt;div style=&quot;font-size: 18px;&quot;&gt;like name of the event, location, department,&lt;/div&gt;&lt;div style=&quot;font-size: 18px;&quot;&gt;time, price&lt;/div&gt;" style="rounded=0;whiteSpace=wrap;html=1;fillColor=#BC6C25;strokeColor=#DDA15E;sketch=1;curveFitting=1;jiggle=2;labelBackgroundColor=none;fontColor=#FEFAE0;fontSize=18;" vertex="1" parent="1">
          <mxGeometry x="180" y="130" width="160" height="110" as="geometry" />
        </mxCell>
        <mxCell id="3X-fXsgyXSY3c85X-Qk--14" style="edgeStyle=orthogonalEdgeStyle;rounded=0;orthogonalLoop=1;jettySize=auto;html=1;exitX=1;exitY=0.5;exitDx=0;exitDy=0;strokeColor=#DDA15E;sketch=1;curveFitting=1;jiggle=2;labelBackgroundColor=none;fontColor=default;fontSize=18;" edge="1" parent="1" source="3X-fXsgyXSY3c85X-Qk--3" target="3X-fXsgyXSY3c85X-Qk--13">
          <mxGeometry relative="1" as="geometry" />
        </mxCell>
        <mxCell id="3X-fXsgyXSY3c85X-Qk--3" value="Create/View/Manage event details" style="rounded=0;whiteSpace=wrap;html=1;fillColor=#BC6C25;strokeColor=#DDA15E;sketch=1;curveFitting=1;jiggle=2;labelBackgroundColor=none;fontColor=#FEFAE0;fontSize=18;" vertex="1" parent="1">
          <mxGeometry x="585" y="175" width="170" height="60" as="geometry" />
        </mxCell>
        <mxCell id="3X-fXsgyXSY3c85X-Qk--6" value="Student" style="text;html=1;align=center;verticalAlign=middle;resizable=0;points=[];autosize=1;strokeColor=#DDA15E;fillColor=#BC6C25;sketch=1;curveFitting=1;jiggle=2;labelBackgroundColor=none;fontColor=#FEFAE0;fontSize=18;" vertex="1" parent="1">
          <mxGeometry x="148" y="63" width="90" height="40" as="geometry" />
        </mxCell>
        <mxCell id="3X-fXsgyXSY3c85X-Qk--7" value="Teacher" style="text;html=1;align=center;verticalAlign=middle;resizable=0;points=[];autosize=1;strokeColor=#DDA15E;fillColor=#BC6C25;sketch=1;curveFitting=1;jiggle=2;labelBackgroundColor=none;fontColor=#FEFAE0;fontSize=18;" vertex="1" parent="1">
          <mxGeometry x="550" y="70" width="90" height="40" as="geometry" />
        </mxCell>
        <mxCell id="3X-fXsgyXSY3c85X-Qk--11" style="edgeStyle=orthogonalEdgeStyle;rounded=0;orthogonalLoop=1;jettySize=auto;html=1;exitX=0.5;exitY=1;exitDx=0;exitDy=0;entryX=0.5;entryY=0;entryDx=0;entryDy=0;strokeColor=#DDA15E;sketch=1;curveFitting=1;jiggle=2;labelBackgroundColor=none;fontColor=default;fontSize=18;" edge="1" parent="1" source="3X-fXsgyXSY3c85X-Qk--8" target="3X-fXsgyXSY3c85X-Qk--9">
          <mxGeometry relative="1" as="geometry" />
        </mxCell>
        <mxCell id="3X-fXsgyXSY3c85X-Qk--41" style="edgeStyle=orthogonalEdgeStyle;rounded=0;orthogonalLoop=1;jettySize=auto;html=1;exitX=1;exitY=0.5;exitDx=0;exitDy=0;entryX=0.136;entryY=-0.05;entryDx=0;entryDy=0;entryPerimeter=0;" edge="1" parent="1" source="3X-fXsgyXSY3c85X-Qk--8" target="3X-fXsgyXSY3c85X-Qk--13">
          <mxGeometry relative="1" as="geometry">
            <mxPoint x="810" y="430" as="targetPoint" />
          </mxGeometry>
        </mxCell>
        <mxCell id="3X-fXsgyXSY3c85X-Qk--8" value="Registration via google form&amp;nbsp;" style="rounded=1;whiteSpace=wrap;html=1;fillColor=#BC6C25;strokeColor=#DDA15E;sketch=1;curveFitting=1;jiggle=2;labelBackgroundColor=none;fontColor=#FEFAE0;fontSize=18;" vertex="1" parent="1">
          <mxGeometry x="40" y="220" width="120" height="60" as="geometry" />
        </mxCell>
        <mxCell id="3X-fXsgyXSY3c85X-Qk--19" style="edgeStyle=orthogonalEdgeStyle;rounded=0;orthogonalLoop=1;jettySize=auto;html=1;exitX=0.5;exitY=1;exitDx=0;exitDy=0;strokeColor=#DDA15E;sketch=1;curveFitting=1;jiggle=2;labelBackgroundColor=none;fontColor=default;fontSize=18;" edge="1" parent="1" source="3X-fXsgyXSY3c85X-Qk--9" target="3X-fXsgyXSY3c85X-Qk--20">
          <mxGeometry relative="1" as="geometry">
            <mxPoint x="100" y="420" as="targetPoint" />
          </mxGeometry>
        </mxCell>
        <mxCell id="3X-fXsgyXSY3c85X-Qk--9" value="payment (optional)" style="rounded=1;whiteSpace=wrap;html=1;fillColor=#BC6C25;strokeColor=#DDA15E;sketch=1;curveFitting=1;jiggle=2;labelBackgroundColor=none;fontColor=#FEFAE0;fontSize=18;" vertex="1" parent="1">
          <mxGeometry x="40" y="360" width="120" height="60" as="geometry" />
        </mxCell>
        <mxCell id="3X-fXsgyXSY3c85X-Qk--34" style="edgeStyle=orthogonalEdgeStyle;rounded=0;orthogonalLoop=1;jettySize=auto;html=1;exitX=0;exitY=0.5;exitDx=0;exitDy=0;entryX=0.5;entryY=0;entryDx=0;entryDy=0;strokeColor=#DDA15E;sketch=1;curveFitting=1;jiggle=2;labelBackgroundColor=none;fontColor=default;fontSize=18;" edge="1" parent="1" source="3X-fXsgyXSY3c85X-Qk--13">
          <mxGeometry relative="1" as="geometry">
            <mxPoint x="462.5" y="589" as="targetPoint" />
            <mxPoint x="857.5" y="479" as="sourcePoint" />
            <Array as="points">
              <mxPoint x="818" y="479" />
              <mxPoint x="462" y="479" />
            </Array>
          </mxGeometry>
        </mxCell>
        <mxCell id="3X-fXsgyXSY3c85X-Qk--13" value="Attendance" style="rounded=1;whiteSpace=wrap;html=1;fillColor=#BC6C25;strokeColor=#DDA15E;sketch=1;curveFitting=1;jiggle=2;labelBackgroundColor=none;fontColor=#FEFAE0;fontSize=18;" vertex="1" parent="1">
          <mxGeometry x="818" y="443" width="120" height="60" as="geometry" />
        </mxCell>
        <mxCell id="3X-fXsgyXSY3c85X-Qk--36" style="edgeStyle=orthogonalEdgeStyle;rounded=0;orthogonalLoop=1;jettySize=auto;html=1;exitX=0.5;exitY=1;exitDx=0;exitDy=0;strokeColor=#DDA15E;sketch=1;curveFitting=1;jiggle=2;labelBackgroundColor=none;fontColor=default;fontSize=18;" edge="1" parent="1" source="3X-fXsgyXSY3c85X-Qk--17" target="3X-fXsgyXSY3c85X-Qk--37">
          <mxGeometry relative="1" as="geometry">
            <mxPoint x="400" y="530" as="targetPoint" />
          </mxGeometry>
        </mxCell>
        <mxCell id="3X-fXsgyXSY3c85X-Qk--17" value="Certificate on E-mail" style="rounded=1;whiteSpace=wrap;html=1;fillColor=#BC6C25;strokeColor=#DDA15E;sketch=1;curveFitting=1;jiggle=2;labelBackgroundColor=none;fontColor=#FEFAE0;fontSize=18;" vertex="1" parent="1">
          <mxGeometry x="405" y="719" width="120" height="60" as="geometry" />
        </mxCell>
        <mxCell id="3X-fXsgyXSY3c85X-Qk--20" value="Notifications/Reminder" style="rounded=1;whiteSpace=wrap;html=1;fillColor=#BC6C25;strokeColor=#DDA15E;sketch=1;curveFitting=1;jiggle=2;labelBackgroundColor=none;fontColor=#FEFAE0;fontSize=18;" vertex="1" parent="1">
          <mxGeometry x="10" y="560" width="180" height="60" as="geometry" />
        </mxCell>
        <mxCell id="3X-fXsgyXSY3c85X-Qk--21" value="if registered and payment is done" style="text;html=1;align=center;verticalAlign=middle;resizable=0;points=[];autosize=1;strokeColor=#DDA15E;fillColor=#BC6C25;sketch=1;curveFitting=1;jiggle=2;labelBackgroundColor=none;fontColor=#FEFAE0;fontSize=18;" vertex="1" parent="1">
          <mxGeometry x="110" y="480" width="290" height="40" as="geometry" />
        </mxCell>
        <mxCell id="3X-fXsgyXSY3c85X-Qk--24" value="&lt;font style=&quot;font-size: 18px;&quot;&gt;if registered and paid the amount then name added to Attendance sheet&amp;nbsp;&lt;/font&gt;" style="text;html=1;align=center;verticalAlign=middle;resizable=0;points=[];autosize=1;strokeColor=#DDA15E;fillColor=#BC6C25;sketch=1;curveFitting=1;jiggle=2;labelBackgroundColor=none;fontColor=#FEFAE0;fontSize=18;" vertex="1" parent="1">
          <mxGeometry x="180" y="351" width="600" height="40" as="geometry" />
        </mxCell>
        <mxCell id="3X-fXsgyXSY3c85X-Qk--25" style="edgeStyle=orthogonalEdgeStyle;rounded=0;orthogonalLoop=1;jettySize=auto;html=1;exitX=1;exitY=0.5;exitDx=0;exitDy=0;strokeColor=#DDA15E;sketch=1;curveFitting=1;jiggle=2;labelBackgroundColor=none;fontColor=default;fontSize=18;entryX=0;entryY=0.25;entryDx=0;entryDy=0;" edge="1" parent="1" source="3X-fXsgyXSY3c85X-Qk--9" target="3X-fXsgyXSY3c85X-Qk--13">
          <mxGeometry relative="1" as="geometry">
            <mxPoint x="160" y="450" as="sourcePoint" />
            <mxPoint x="780" y="465" as="targetPoint" />
            <Array as="points">
              <mxPoint x="160" y="411" />
              <mxPoint x="795" y="411" />
              <mxPoint x="795" y="458" />
            </Array>
          </mxGeometry>
        </mxCell>
        <mxCell id="3X-fXsgyXSY3c85X-Qk--27" value="if attendance status is present&amp;nbsp;" style="text;html=1;align=center;verticalAlign=middle;resizable=0;points=[];autosize=1;strokeColor=#DDA15E;fillColor=#BC6C25;fontSize=18;sketch=1;curveFitting=1;jiggle=2;labelBackgroundColor=none;fontColor=#FEFAE0;" vertex="1" parent="1">
          <mxGeometry x="525" y="496" width="270" height="40" as="geometry" />
        </mxCell>
        <mxCell id="3X-fXsgyXSY3c85X-Qk--28" value="particular event&amp;nbsp;" style="text;html=1;align=center;verticalAlign=middle;resizable=0;points=[];autosize=1;strokeColor=#DDA15E;fillColor=#BC6C25;sketch=1;curveFitting=1;jiggle=2;labelBackgroundColor=none;fontColor=#FEFAE0;fontSize=18;" vertex="1" parent="1">
          <mxGeometry x="778" y="150" width="150" height="40" as="geometry" />
        </mxCell>
        <mxCell id="3X-fXsgyXSY3c85X-Qk--33" value="" style="edgeStyle=orthogonalEdgeStyle;rounded=0;orthogonalLoop=1;jettySize=auto;html=1;strokeColor=#DDA15E;sketch=1;curveFitting=1;jiggle=2;labelBackgroundColor=none;fontColor=default;fontSize=18;" edge="1" parent="1" source="3X-fXsgyXSY3c85X-Qk--31" target="3X-fXsgyXSY3c85X-Qk--17">
          <mxGeometry relative="1" as="geometry" />
        </mxCell>
        <mxCell id="3X-fXsgyXSY3c85X-Qk--31" value="Feedback Form" style="rounded=1;whiteSpace=wrap;html=1;fillColor=#BC6C25;strokeColor=#DDA15E;sketch=1;curveFitting=1;jiggle=2;labelBackgroundColor=none;fontColor=#FEFAE0;fontSize=18;" vertex="1" parent="1">
          <mxGeometry x="405" y="589" width="120" height="60" as="geometry" />
        </mxCell>
        <mxCell id="3X-fXsgyXSY3c85X-Qk--37" value="End" style="ellipse;whiteSpace=wrap;html=1;fillColor=#BC6C25;strokeColor=#DDA15E;sketch=1;curveFitting=1;jiggle=2;labelBackgroundColor=none;fontColor=#FEFAE0;fontSize=18;" vertex="1" parent="1">
          <mxGeometry x="405" y="826" width="120" height="60" as="geometry" />
        </mxCell>
        <mxCell id="3X-fXsgyXSY3c85X-Qk--38" style="edgeStyle=orthogonalEdgeStyle;rounded=0;orthogonalLoop=1;jettySize=auto;html=1;exitX=0.5;exitY=1;exitDx=0;exitDy=0;" edge="1" parent="1" source="3X-fXsgyXSY3c85X-Qk--3" target="3X-fXsgyXSY3c85X-Qk--3">
          <mxGeometry relative="1" as="geometry" />
        </mxCell>
      </root>
    </mxGraphModel>
  </diagram>
</mxfile>
